<mxfile host="app.diagrams.net" modified="2023-11-16T10:36:30.951Z" agent="Mozilla/5.0 (Windows NT 10.0; Win64; x64) AppleWebKit/537.36 (KHTML, like Gecko) Chrome/119.0.0.0 Safari/537.36" etag="ej03ikbqPI12G5v7TmzG" version="21.7.1" type="device">
  <diagram name="Page-1" id="BFCfkj44Z6ilVPssTD7I">
    <mxGraphModel dx="2600" dy="883" grid="1" gridSize="10" guides="1" tooltips="1" connect="1" arrows="1" fold="1" page="1" pageScale="1" pageWidth="850" pageHeight="1100" math="0" shadow="0">
      <root>
        <mxCell id="0" />
        <mxCell id="1" parent="0" />
        <mxCell id="08RngO05yTWiYmBngshI-7" style="edgeStyle=orthogonalEdgeStyle;rounded=0;orthogonalLoop=1;jettySize=auto;html=1;exitX=0;exitY=0.5;exitDx=10;exitDy=0;exitPerimeter=0;endArrow=none;endFill=0;entryX=0;entryY=0.5;entryDx=0;entryDy=0;entryPerimeter=0;" edge="1" parent="1" source="08RngO05yTWiYmBngshI-1" target="08RngO05yTWiYmBngshI-8">
          <mxGeometry relative="1" as="geometry">
            <mxPoint x="200" y="170" as="targetPoint" />
          </mxGeometry>
        </mxCell>
        <mxCell id="08RngO05yTWiYmBngshI-14" style="edgeStyle=orthogonalEdgeStyle;rounded=0;orthogonalLoop=1;jettySize=auto;html=1;exitX=1;exitY=0.5;exitDx=0;exitDy=0;entryX=0;entryY=0.5;entryDx=0;entryDy=0;entryPerimeter=0;endArrow=none;endFill=0;" edge="1" parent="1" source="08RngO05yTWiYmBngshI-1" target="08RngO05yTWiYmBngshI-13">
          <mxGeometry relative="1" as="geometry" />
        </mxCell>
        <mxCell id="08RngO05yTWiYmBngshI-1" value="Common&lt;br&gt;" style="shape=module;align=left;spacingLeft=20;align=center;verticalAlign=top;whiteSpace=wrap;html=1;" vertex="1" parent="1">
          <mxGeometry x="280" width="240" height="110" as="geometry" />
        </mxCell>
        <mxCell id="08RngO05yTWiYmBngshI-3" value="MonitoredFolder" style="shape=cylinder3;whiteSpace=wrap;html=1;boundedLbl=1;backgroundOutline=1;size=15;" vertex="1" parent="1">
          <mxGeometry x="-105.5" y="550" width="130" height="80" as="geometry" />
        </mxCell>
        <mxCell id="08RngO05yTWiYmBngshI-4" value="SavesFolder" style="shape=cylinder3;whiteSpace=wrap;html=1;boundedLbl=1;backgroundOutline=1;size=15;" vertex="1" parent="1">
          <mxGeometry x="780" y="560" width="130" height="80" as="geometry" />
        </mxCell>
        <mxCell id="08RngO05yTWiYmBngshI-11" style="edgeStyle=orthogonalEdgeStyle;rounded=0;orthogonalLoop=1;jettySize=auto;html=1;entryX=1;entryY=0.5;entryDx=0;entryDy=0;entryPerimeter=0;endArrow=none;endFill=0;exitX=0.25;exitY=0;exitDx=0;exitDy=0;" edge="1" parent="1" source="08RngO05yTWiYmBngshI-5" target="08RngO05yTWiYmBngshI-8">
          <mxGeometry relative="1" as="geometry">
            <mxPoint x="-60" y="370" as="sourcePoint" />
          </mxGeometry>
        </mxCell>
        <mxCell id="08RngO05yTWiYmBngshI-18" style="edgeStyle=orthogonalEdgeStyle;rounded=0;orthogonalLoop=1;jettySize=auto;html=1;exitX=0.75;exitY=0;exitDx=0;exitDy=0;entryX=1;entryY=0.5;entryDx=0;entryDy=0;entryPerimeter=0;endArrow=none;endFill=0;" edge="1" parent="1" source="08RngO05yTWiYmBngshI-5" target="08RngO05yTWiYmBngshI-19">
          <mxGeometry relative="1" as="geometry">
            <mxPoint x="-10" y="270" as="targetPoint" />
          </mxGeometry>
        </mxCell>
        <mxCell id="08RngO05yTWiYmBngshI-41" style="edgeStyle=orthogonalEdgeStyle;rounded=0;orthogonalLoop=1;jettySize=auto;html=1;exitX=0.5;exitY=1;exitDx=0;exitDy=0;entryX=0.5;entryY=0;entryDx=0;entryDy=0;entryPerimeter=0;endArrow=open;endFill=0;dashed=1;" edge="1" parent="1" source="08RngO05yTWiYmBngshI-5" target="08RngO05yTWiYmBngshI-3">
          <mxGeometry relative="1" as="geometry" />
        </mxCell>
        <mxCell id="08RngO05yTWiYmBngshI-44" style="rounded=0;orthogonalLoop=1;jettySize=auto;html=1;exitX=1;exitY=0.5;exitDx=0;exitDy=0;dashed=1;endArrow=open;endFill=0;" edge="1" parent="1" source="08RngO05yTWiYmBngshI-5">
          <mxGeometry relative="1" as="geometry">
            <mxPoint x="250" y="649.9999999999998" as="targetPoint" />
          </mxGeometry>
        </mxCell>
        <mxCell id="08RngO05yTWiYmBngshI-5" value="DataCaptureService" style="shape=module;align=left;spacingLeft=20;align=center;verticalAlign=top;whiteSpace=wrap;html=1;" vertex="1" parent="1">
          <mxGeometry x="-148" y="370" width="215" height="110" as="geometry" />
        </mxCell>
        <mxCell id="08RngO05yTWiYmBngshI-15" style="edgeStyle=orthogonalEdgeStyle;rounded=0;orthogonalLoop=1;jettySize=auto;html=1;exitX=0.75;exitY=0;exitDx=0;exitDy=0;entryX=1;entryY=0.5;entryDx=0;entryDy=0;entryPerimeter=0;endArrow=none;endFill=0;" edge="1" parent="1" source="08RngO05yTWiYmBngshI-6" target="08RngO05yTWiYmBngshI-13">
          <mxGeometry relative="1" as="geometry" />
        </mxCell>
        <mxCell id="08RngO05yTWiYmBngshI-40" style="rounded=0;orthogonalLoop=1;jettySize=auto;html=1;exitX=0;exitY=0.5;exitDx=10;exitDy=0;exitPerimeter=0;endArrow=open;endFill=0;dashed=1;" edge="1" parent="1" source="08RngO05yTWiYmBngshI-6">
          <mxGeometry relative="1" as="geometry">
            <mxPoint x="510" y="660" as="targetPoint" />
          </mxGeometry>
        </mxCell>
        <mxCell id="08RngO05yTWiYmBngshI-6" value="ProcessingService" style="shape=module;align=left;spacingLeft=20;align=center;verticalAlign=top;whiteSpace=wrap;html=1;" vertex="1" parent="1">
          <mxGeometry x="750" y="370" width="190" height="110" as="geometry" />
        </mxCell>
        <mxCell id="08RngO05yTWiYmBngshI-8" value="" style="shape=providedRequiredInterface;html=1;verticalLabelPosition=bottom;sketch=0;rotation=90;" vertex="1" parent="1">
          <mxGeometry x="-120" y="200" width="50" height="50" as="geometry" />
        </mxCell>
        <mxCell id="08RngO05yTWiYmBngshI-12" value="IFileFolderMonitoringService" style="text;html=1;align=center;verticalAlign=middle;resizable=0;points=[];autosize=1;strokeColor=none;fillColor=none;" vertex="1" parent="1">
          <mxGeometry x="-310" y="210" width="180" height="30" as="geometry" />
        </mxCell>
        <mxCell id="08RngO05yTWiYmBngshI-13" value="" style="shape=providedRequiredInterface;html=1;verticalLabelPosition=bottom;sketch=0;rotation=90;" vertex="1" parent="1">
          <mxGeometry x="868" y="200" width="50" height="50" as="geometry" />
        </mxCell>
        <mxCell id="08RngO05yTWiYmBngshI-16" value="IProcessingService" style="text;html=1;align=center;verticalAlign=middle;resizable=0;points=[];autosize=1;strokeColor=none;fillColor=none;" vertex="1" parent="1">
          <mxGeometry x="918" y="210" width="130" height="30" as="geometry" />
        </mxCell>
        <mxCell id="08RngO05yTWiYmBngshI-24" style="edgeStyle=orthogonalEdgeStyle;rounded=0;orthogonalLoop=1;jettySize=auto;html=1;exitX=1;exitY=0.5;exitDx=0;exitDy=0;entryX=0;entryY=0.5;entryDx=0;entryDy=0;entryPerimeter=0;endArrow=none;endFill=0;" edge="1" parent="1" source="08RngO05yTWiYmBngshI-17" target="08RngO05yTWiYmBngshI-22">
          <mxGeometry relative="1" as="geometry" />
        </mxCell>
        <mxCell id="08RngO05yTWiYmBngshI-17" value="Kafka" style="shape=module;align=left;spacingLeft=20;align=center;verticalAlign=top;whiteSpace=wrap;html=1;" vertex="1" parent="1">
          <mxGeometry x="280" y="150" width="240" height="110" as="geometry" />
        </mxCell>
        <mxCell id="08RngO05yTWiYmBngshI-20" style="edgeStyle=orthogonalEdgeStyle;rounded=0;orthogonalLoop=1;jettySize=auto;html=1;exitX=0;exitY=0.5;exitDx=0;exitDy=0;exitPerimeter=0;entryX=0;entryY=0.5;entryDx=10;entryDy=0;entryPerimeter=0;endArrow=none;endFill=0;" edge="1" parent="1" source="08RngO05yTWiYmBngshI-19" target="08RngO05yTWiYmBngshI-17">
          <mxGeometry relative="1" as="geometry" />
        </mxCell>
        <mxCell id="08RngO05yTWiYmBngshI-19" value="" style="shape=providedRequiredInterface;html=1;verticalLabelPosition=bottom;sketch=0;rotation=-180;" vertex="1" parent="1">
          <mxGeometry x="130" y="180" width="50" height="50" as="geometry" />
        </mxCell>
        <mxCell id="08RngO05yTWiYmBngshI-21" value="IKafkaProducer" style="text;html=1;align=center;verticalAlign=middle;resizable=0;points=[];autosize=1;strokeColor=none;fillColor=none;" vertex="1" parent="1">
          <mxGeometry x="100" y="150" width="110" height="30" as="geometry" />
        </mxCell>
        <mxCell id="08RngO05yTWiYmBngshI-25" style="edgeStyle=orthogonalEdgeStyle;rounded=0;orthogonalLoop=1;jettySize=auto;html=1;exitX=1;exitY=0.5;exitDx=0;exitDy=0;exitPerimeter=0;entryX=0.25;entryY=0;entryDx=0;entryDy=0;endArrow=none;endFill=0;" edge="1" parent="1" source="08RngO05yTWiYmBngshI-22" target="08RngO05yTWiYmBngshI-6">
          <mxGeometry relative="1" as="geometry" />
        </mxCell>
        <mxCell id="08RngO05yTWiYmBngshI-22" value="" style="shape=providedRequiredInterface;html=1;verticalLabelPosition=bottom;sketch=0;rotation=0;" vertex="1" parent="1">
          <mxGeometry x="580" y="180" width="50" height="50" as="geometry" />
        </mxCell>
        <mxCell id="08RngO05yTWiYmBngshI-23" value="IKafkaConsumer" style="text;html=1;align=center;verticalAlign=middle;resizable=0;points=[];autosize=1;strokeColor=none;fillColor=none;" vertex="1" parent="1">
          <mxGeometry x="550" y="150" width="110" height="30" as="geometry" />
        </mxCell>
        <mxCell id="08RngO05yTWiYmBngshI-31" style="rounded=0;orthogonalLoop=1;jettySize=auto;html=1;entryX=1;entryY=0.5;entryDx=0;entryDy=0;entryPerimeter=0;exitX=0.271;exitY=0;exitDx=0;exitDy=0;exitPerimeter=0;endArrow=none;endFill=0;" edge="1" parent="1" source="08RngO05yTWiYmBngshI-26">
          <mxGeometry relative="1" as="geometry">
            <mxPoint x="325" y="590" as="sourcePoint" />
            <mxPoint x="325" y="560" as="targetPoint" />
          </mxGeometry>
        </mxCell>
        <mxCell id="08RngO05yTWiYmBngshI-26" value="Apache Kafka" style="shape=module;align=left;spacingLeft=20;align=center;verticalAlign=top;whiteSpace=wrap;html=1;" vertex="1" parent="1">
          <mxGeometry x="260" y="620" width="240" height="55" as="geometry" />
        </mxCell>
        <mxCell id="08RngO05yTWiYmBngshI-32" style="rounded=0;orthogonalLoop=1;jettySize=auto;html=1;entryX=1;entryY=0.5;entryDx=0;entryDy=0;entryPerimeter=0;endArrow=none;endFill=0;" edge="1" parent="1">
          <mxGeometry relative="1" as="geometry">
            <mxPoint x="445" y="620" as="sourcePoint" />
            <mxPoint x="444.8" y="560" as="targetPoint" />
          </mxGeometry>
        </mxCell>
        <mxCell id="08RngO05yTWiYmBngshI-33" value="" style="ellipse;whiteSpace=wrap;html=1;" vertex="1" parent="1">
          <mxGeometry x="310" y="550" width="30" height="30" as="geometry" />
        </mxCell>
        <mxCell id="08RngO05yTWiYmBngshI-34" value="" style="ellipse;whiteSpace=wrap;html=1;" vertex="1" parent="1">
          <mxGeometry x="430" y="550" width="30" height="30" as="geometry" />
        </mxCell>
        <mxCell id="08RngO05yTWiYmBngshI-35" value="" style="endArrow=block;html=1;rounded=0;endFill=0;dashed=1;" edge="1" parent="1" source="08RngO05yTWiYmBngshI-19">
          <mxGeometry width="50" height="50" relative="1" as="geometry">
            <mxPoint x="180" y="340" as="sourcePoint" />
            <mxPoint x="320" y="540" as="targetPoint" />
          </mxGeometry>
        </mxCell>
        <mxCell id="08RngO05yTWiYmBngshI-36" value="" style="endArrow=block;html=1;rounded=0;endFill=0;dashed=1;" edge="1" parent="1">
          <mxGeometry width="50" height="50" relative="1" as="geometry">
            <mxPoint x="600" y="240" as="sourcePoint" />
            <mxPoint x="450" y="540" as="targetPoint" />
          </mxGeometry>
        </mxCell>
        <mxCell id="08RngO05yTWiYmBngshI-37" value="IKafkaConsumer" style="text;html=1;align=center;verticalAlign=middle;resizable=0;points=[];autosize=1;strokeColor=none;fillColor=none;" vertex="1" parent="1">
          <mxGeometry x="450" y="540" width="110" height="30" as="geometry" />
        </mxCell>
        <mxCell id="08RngO05yTWiYmBngshI-38" value="IKafkaProducer" style="text;html=1;align=center;verticalAlign=middle;resizable=0;points=[];autosize=1;strokeColor=none;fillColor=none;" vertex="1" parent="1">
          <mxGeometry x="210" y="540" width="110" height="30" as="geometry" />
        </mxCell>
        <mxCell id="08RngO05yTWiYmBngshI-42" style="rounded=0;orthogonalLoop=1;jettySize=auto;html=1;exitX=0.5;exitY=0;exitDx=0;exitDy=0;endArrow=none;endFill=0;exitPerimeter=0;entryX=0.5;entryY=1;entryDx=0;entryDy=0;dashed=1;startArrow=open;startFill=0;" edge="1" parent="1" source="08RngO05yTWiYmBngshI-4" target="08RngO05yTWiYmBngshI-6">
          <mxGeometry relative="1" as="geometry">
            <mxPoint x="820.5" y="490" as="sourcePoint" />
            <mxPoint x="910" y="550" as="targetPoint" />
          </mxGeometry>
        </mxCell>
        <mxCell id="08RngO05yTWiYmBngshI-45" value="PDF file" style="rounded=0;whiteSpace=wrap;html=1;" vertex="1" parent="1">
          <mxGeometry x="948" y="500" width="90" height="40" as="geometry" />
        </mxCell>
        <mxCell id="08RngO05yTWiYmBngshI-47" style="edgeStyle=orthogonalEdgeStyle;rounded=0;orthogonalLoop=1;jettySize=auto;html=1;exitX=1;exitY=0.5;exitDx=0;exitDy=0;endArrow=none;endFill=0;dashed=1;" edge="1" parent="1" source="08RngO05yTWiYmBngshI-46">
          <mxGeometry relative="1" as="geometry">
            <mxPoint x="-40" y="519.5294117647059" as="targetPoint" />
          </mxGeometry>
        </mxCell>
        <mxCell id="08RngO05yTWiYmBngshI-46" value="PDF file" style="rounded=0;whiteSpace=wrap;html=1;" vertex="1" parent="1">
          <mxGeometry x="-270" y="500" width="90" height="40" as="geometry" />
        </mxCell>
        <mxCell id="08RngO05yTWiYmBngshI-48" style="edgeStyle=orthogonalEdgeStyle;rounded=0;orthogonalLoop=1;jettySize=auto;html=1;endArrow=none;endFill=0;dashed=1;entryX=0;entryY=0.5;entryDx=0;entryDy=0;" edge="1" parent="1" target="08RngO05yTWiYmBngshI-45">
          <mxGeometry relative="1" as="geometry">
            <mxPoint x="880" y="519.5294117647059" as="targetPoint" />
            <mxPoint x="850" y="520" as="sourcePoint" />
          </mxGeometry>
        </mxCell>
        <mxCell id="08RngO05yTWiYmBngshI-49" value="KafkaConsumerProvider" style="rounded=0;whiteSpace=wrap;html=1;" vertex="1" parent="1">
          <mxGeometry x="310" y="180" width="150" height="20" as="geometry" />
        </mxCell>
        <mxCell id="08RngO05yTWiYmBngshI-50" value="KafkaProducerProvider" style="rounded=0;whiteSpace=wrap;html=1;" vertex="1" parent="1">
          <mxGeometry x="310" y="210" width="150" height="20" as="geometry" />
        </mxCell>
        <mxCell id="08RngO05yTWiYmBngshI-52" value="Avro" style="rounded=0;whiteSpace=wrap;html=1;" vertex="1" parent="1">
          <mxGeometry x="310" y="30" width="90" height="20" as="geometry" />
        </mxCell>
        <mxCell id="08RngO05yTWiYmBngshI-53" value="Models" style="rounded=0;whiteSpace=wrap;html=1;" vertex="1" parent="1">
          <mxGeometry x="310" y="60" width="90" height="20" as="geometry" />
        </mxCell>
        <mxCell id="08RngO05yTWiYmBngshI-57" style="edgeStyle=orthogonalEdgeStyle;rounded=0;orthogonalLoop=1;jettySize=auto;html=1;exitX=0.5;exitY=1;exitDx=0;exitDy=0;entryX=0.5;entryY=0;entryDx=0;entryDy=0;endArrow=open;endFill=0;dashed=1;" edge="1" parent="1" source="08RngO05yTWiYmBngshI-55" target="08RngO05yTWiYmBngshI-56">
          <mxGeometry relative="1" as="geometry" />
        </mxCell>
        <mxCell id="08RngO05yTWiYmBngshI-55" value="DataCaptureHostedService" style="rounded=0;whiteSpace=wrap;html=1;" vertex="1" parent="1">
          <mxGeometry x="-105.5" y="410" width="150" height="20" as="geometry" />
        </mxCell>
        <mxCell id="08RngO05yTWiYmBngshI-56" value="FileFolderMonitoringService" style="rounded=0;whiteSpace=wrap;html=1;" vertex="1" parent="1">
          <mxGeometry x="-105.5" y="450" width="150" height="20" as="geometry" />
        </mxCell>
        <mxCell id="08RngO05yTWiYmBngshI-58" style="edgeStyle=orthogonalEdgeStyle;rounded=0;orthogonalLoop=1;jettySize=auto;html=1;exitX=0.5;exitY=1;exitDx=0;exitDy=0;entryX=0.5;entryY=0;entryDx=0;entryDy=0;endArrow=open;endFill=0;dashed=1;" edge="1" source="08RngO05yTWiYmBngshI-59" target="08RngO05yTWiYmBngshI-60" parent="1">
          <mxGeometry relative="1" as="geometry" />
        </mxCell>
        <mxCell id="08RngO05yTWiYmBngshI-59" value="ProcessingHostedService" style="rounded=0;whiteSpace=wrap;html=1;" vertex="1" parent="1">
          <mxGeometry x="780" y="410" width="150" height="20" as="geometry" />
        </mxCell>
        <mxCell id="08RngO05yTWiYmBngshI-60" value="ProcessingService" style="rounded=0;whiteSpace=wrap;html=1;" vertex="1" parent="1">
          <mxGeometry x="780" y="450" width="150" height="20" as="geometry" />
        </mxCell>
        <mxCell id="08RngO05yTWiYmBngshI-63" value="" style="endArrow=none;dashed=1;html=1;rounded=0;exitX=0.276;exitY=-0.044;exitDx=0;exitDy=0;exitPerimeter=0;" edge="1" parent="1">
          <mxGeometry width="50" height="50" relative="1" as="geometry">
            <mxPoint x="627.5999999999999" y="616.9200000000001" as="sourcePoint" />
            <mxPoint x="630" y="550" as="targetPoint" />
          </mxGeometry>
        </mxCell>
        <mxCell id="08RngO05yTWiYmBngshI-65" value="Produces&lt;br style=&quot;border-color: var(--border-color);&quot;&gt;&lt;span style=&quot;&quot;&gt;a message&lt;/span&gt;" style="shape=note;size=20;whiteSpace=wrap;html=1;align=left;" vertex="1" parent="1">
          <mxGeometry x="90" y="620" width="100" height="60" as="geometry" />
        </mxCell>
        <mxCell id="08RngO05yTWiYmBngshI-66" value="Listens to&lt;br&gt;the topic &amp;amp; consumes&lt;br style=&quot;border-color: var(--border-color);&quot;&gt;&lt;span style=&quot;&quot;&gt;a message&lt;/span&gt;" style="shape=note;size=20;whiteSpace=wrap;html=1;align=left;" vertex="1" parent="1">
          <mxGeometry x="600" y="620" width="100" height="60" as="geometry" />
        </mxCell>
        <mxCell id="08RngO05yTWiYmBngshI-67" value="" style="endArrow=none;dashed=1;html=1;rounded=0;" edge="1" parent="1">
          <mxGeometry width="50" height="50" relative="1" as="geometry">
            <mxPoint x="156" y="620" as="sourcePoint" />
            <mxPoint x="156.2" y="540" as="targetPoint" />
          </mxGeometry>
        </mxCell>
        <mxCell id="08RngO05yTWiYmBngshI-68" value="Monitors the changes in the folder" style="shape=note;size=20;whiteSpace=wrap;html=1;align=left;" vertex="1" parent="1">
          <mxGeometry x="-248" y="590" width="100" height="60" as="geometry" />
        </mxCell>
        <mxCell id="08RngO05yTWiYmBngshI-70" value="" style="endArrow=none;dashed=1;html=1;rounded=0;exitX=0.5;exitY=0;exitDx=0;exitDy=0;exitPerimeter=0;" edge="1" parent="1" source="08RngO05yTWiYmBngshI-68">
          <mxGeometry width="50" height="50" relative="1" as="geometry">
            <mxPoint x="-198" y="590" as="sourcePoint" />
            <mxPoint x="-130" y="520" as="targetPoint" />
          </mxGeometry>
        </mxCell>
        <mxCell id="08RngO05yTWiYmBngshI-71" value="Saves&lt;br&gt;the PDF file" style="shape=note;size=20;whiteSpace=wrap;html=1;align=left;" vertex="1" parent="1">
          <mxGeometry x="980" y="590" width="100" height="60" as="geometry" />
        </mxCell>
        <mxCell id="08RngO05yTWiYmBngshI-72" value="" style="endArrow=none;dashed=1;html=1;rounded=0;exitX=0;exitY=0.5;exitDx=0;exitDy=0;exitPerimeter=0;" edge="1" parent="1" source="08RngO05yTWiYmBngshI-71">
          <mxGeometry width="50" height="50" relative="1" as="geometry">
            <mxPoint x="910" y="620" as="sourcePoint" />
            <mxPoint x="910" y="520" as="targetPoint" />
          </mxGeometry>
        </mxCell>
      </root>
    </mxGraphModel>
  </diagram>
</mxfile>
